HIERARCHY
ROOT Hips
{
	OFFSET 0.000000 0.000000 0.000000
	CHANNELS 6 Xposition Yposition Zposition Xrotation Yrotation Zrotation
	JOINT LeftUpLeg_virtual
	{
		OFFSET 0.000000 0.000000 0.000000
		CHANNELS 3 Xrotation Yrotation Zrotation
		JOINT LeftUpLeg
		{
			OFFSET 15.427100 -6.655098 0.678600
			CHANNELS 3 Xrotation Yrotation Zrotation
			JOINT LeftLeg
			{
				OFFSET 4.081073 -39.591068 13.024000
				CHANNELS 3 Xrotation Yrotation Zrotation
				JOINT LeftFoot
				{
					OFFSET -4.081074 -37.707932 -15.979700
					CHANNELS 3 Xrotation Yrotation Zrotation
					JOINT LeftToeBase
					{
						OFFSET 5.346399 -15.068900 20.645000
						CHANNELS 3 Xrotation Yrotation Zrotation
						JOINT LeftToe_End
						{
							OFFSET 2.754700 0.931300 11.300900
							CHANNELS 3 Xrotation Yrotation Zrotation
							End Site
							{
								OFFSET 0 0 0
							}
						}
					}
				}
			}
		}
	}
	JOINT RightUpLeg_virtual
	{
		OFFSET 0.000000 0.000000 0.000000
		CHANNELS 3 Xrotation Yrotation Zrotation
		JOINT RightUpLeg
		{
			OFFSET -15.569500 -6.655098 0.678600
			CHANNELS 3 Xrotation Yrotation Zrotation
			JOINT RightLeg
			{
				OFFSET -4.081825 -39.591045 13.023800
				CHANNELS 3 Xrotation Yrotation Zrotation
				JOINT RightFoot
				{
					OFFSET 4.081824 -37.707954 -15.979600
					CHANNELS 3 Xrotation Yrotation Zrotation
					JOINT RightToeBase
					{
						OFFSET -5.346400 -15.068900 20.645000
						CHANNELS 3 Xrotation Yrotation Zrotation
						JOINT RightToe_End
						{
							OFFSET -2.754700 0.931300 11.300900
							CHANNELS 3 Xrotation Yrotation Zrotation
							End Site
							{
								OFFSET 0 0 0
							}
						}
					}
				}
			}
		}
	}
	JOINT Spine_virtual
	{
		OFFSET 0.000000 0.000000 0.000000
		CHANNELS 3 Xrotation Yrotation Zrotation
		JOINT Spine
		{
			OFFSET -0.279200 12.230698 -2.892100
			CHANNELS 3 Xrotation Yrotation Zrotation
			JOINT Spine1
			{
				OFFSET -0.232667 10.192268 -1.242267
				CHANNELS 3 Xrotation Yrotation Zrotation
				JOINT Spine1_split
				{
					OFFSET -0.232667 10.192268 -1.242267
					CHANNELS 3 Xrotation Yrotation Zrotation
					JOINT Spine2
					{
						OFFSET -0.232667 10.192268 -1.242267
						CHANNELS 3 Xrotation Yrotation Zrotation
						JOINT Neck_virtual
						{
							OFFSET 0.000000 0.000000 0.000000
							CHANNELS 3 Xrotation Yrotation Zrotation
							JOINT Neck
							{
								OFFSET -0.418800 17.814194 8.416900
								CHANNELS 3 Xrotation Yrotation Zrotation
								JOINT Head
								{
									OFFSET 0.000000 7.031097 3.806800
									CHANNELS 3 Xrotation Yrotation Zrotation
									JOINT HeadTop_End
									{
										OFFSET 0.000000 24.646606 12.978600
										CHANNELS 3 Xrotation Yrotation Zrotation
										End Site
										{
											OFFSET 0 0 0
										}
									}
								}
							}
						}
						JOINT LeftShoulder_virtual
						{
							OFFSET 0.000000 0.000000 0.000000
							CHANNELS 3 Xrotation Yrotation Zrotation
							JOINT LeftShoulder
							{
								OFFSET 8.476499 7.247704 -3.868750
								CHANNELS 3 Xrotation Yrotation Zrotation
								JOINT LeftShoulder_split
								{
									OFFSET 8.476499 7.247704 -3.868750
									CHANNELS 3 Xrotation Yrotation Zrotation
									JOINT LeftArm
									{
										OFFSET 9.308998 -2.777710 0.208600
										CHANNELS 3 Xrotation Yrotation Zrotation
										JOINT LeftForeArm
										{
											OFFSET 29.972298 0.000000 0.000000
											CHANNELS 3 Xrotation Yrotation Zrotation
											JOINT LeftHand
											{
												OFFSET 26.026505 0.000000 0.000000
												CHANNELS 3 Xrotation Yrotation Zrotation
												End Site
												{
													OFFSET 0 0 0
												}
											}
										}
									}
								}
							}
						}
						JOINT RightShoulder_virtual
						{
							OFFSET 0.000000 0.000000 0.000000
							CHANNELS 3 Xrotation Yrotation Zrotation
							JOINT RightShoulder
							{
								OFFSET -7.570500 7.247704 -3.868750
								CHANNELS 3 Xrotation Yrotation Zrotation
								JOINT RightShoulder_split
								{
									OFFSET -7.570500 7.247704 -3.868750
									CHANNELS 3 Xrotation Yrotation Zrotation
									JOINT RightArm
									{
										OFFSET -9.308998 -2.777710 0.208500
										CHANNELS 3 Xrotation Yrotation Zrotation
										JOINT RightForeArm
										{
											OFFSET -29.972300 0.000000 0.000000
											CHANNELS 3 Xrotation Yrotation Zrotation
											JOINT RightHand
											{
												OFFSET -26.026505 0.000000 0.000000
												CHANNELS 3 Xrotation Yrotation Zrotation
												End Site
												{
													OFFSET 0 0 0
												}
											}
										}
									}
								}
							}
						}
					}
				}
			}
		}
	}
}
MOTION
Frames: 9
Frame Time: 0.03333333
6.538369 85.953537 114.883186 0.000000 0.000000 0.000000 22.212902 26.129486 -7.399117 -41.665749 8.405776 16.885237 41.894878 10.366260 -5.275416 -2.178081 29.961301 -7.290234 -9.306643 0.275190 -1.215435 0.000000 0.000000 0.000000 23.555499 25.065797 -8.230660 -50.272368 -6.464034 -3.501886 32.229860 -5.029591 -5.933448 -2.212076 -7.173433 5.244832 2.693402 0.058879 0.240858 0.000000 0.000000 0.000000 21.685823 22.055405 -6.975087 11.621959 -1.069734 3.205304 8.423309 -2.640223 0.614332 0.676906 3.503390 0.045278 0.000000 0.000000 0.000000 8.795490 -2.852491 0.490543 -6.178379 0.196354 2.815364 -20.640931 0.855845 1.864038 0.000000 0.000000 0.000000 9.008342 -2.918199 0.590661 0.680139 -8.967907 -6.438075 4.243713 -4.507860 0.888993 -26.711427 -22.849455 -31.631077 0.045892 -25.803394 0.064369 0.000000 0.000000 0.000000 9.321849 -2.619181 0.809403 2.108699 5.385696 4.571961 4.200561 3.394550 -0.865193 -16.923653 -8.452604 54.220060 1.010884 64.043016 -1.291327 0.000000 0.000000 0.000000 
7.021932 88.788788 117.582886 0.000000 0.000000 0.000000 23.029069 28.630428 -8.183355 -43.410483 8.314647 13.976454 35.355173 9.783431 -5.053297 2.148932 29.392561 -9.544003 -8.482868 -0.088857 -0.195748 0.000000 0.000000 0.000000 24.136936 27.992086 -9.012352 -43.359240 -8.952012 -3.183406 25.854952 -5.599708 -6.553570 -2.770153 -8.651801 5.954644 1.909376 0.187835 0.428837 0.000000 0.000000 0.000000 22.120218 23.818138 -7.467903 11.108183 0.109438 3.118943 8.764996 -2.353404 0.655537 0.579018 3.923066 -0.035551 0.000000 0.000000 0.000000 9.048822 -2.585098 0.551177 -5.600397 -0.236144 2.181592 -23.136909 -1.933518 0.644385 0.000000 0.000000 0.000000 9.284198 -2.643093 0.503321 0.907489 -8.608635 -6.445175 4.606895 -4.595914 0.849887 -23.967586 -23.290334 -31.390668 0.395893 -24.662597 0.235864 0.000000 0.000000 0.000000 9.747465 -2.278731 0.848256 2.097504 5.694908 4.780340 3.837562 3.183509 -0.688589 -18.696842 -9.693399 55.443497 0.116272 68.137496 -0.591583 0.000000 0.000000 0.000000 
7.594995 90.042480 120.214851 0.000000 0.000000 0.000000 23.279090 30.409013 -8.838619 -45.052420 8.021766 12.048416 30.267765 9.770958 -5.049755 5.542982 29.550578 -10.550952 -6.411614 -0.265667 0.268538 0.000000 0.000000 0.000000 24.248225 30.341548 -9.662528 -37.427726 -11.225444 -2.671572 22.287148 -5.860816 -6.899776 -4.616731 -10.283033 6.656368 0.767796 0.372228 0.438787 0.000000 0.000000 0.000000 21.910378 25.537546 -7.845299 10.679333 1.183724 3.216810 9.017154 -2.016075 0.532757 0.360580 4.182478 -0.288675 0.000000 0.000000 0.000000 9.163419 -2.305859 0.478506 -5.248718 -0.505472 1.232415 -25.454618 -4.691093 -0.675568 0.000000 0.000000 0.000000 9.562886 -2.345266 0.299101 1.100901 -7.863223 -6.327266 4.527487 -4.617271 0.794275 -21.197757 -22.771260 -31.095724 0.762677 -25.584492 0.478354 0.000000 0.000000 0.000000 10.119331 -1.942676 0.720482 2.046355 6.209064 4.947986 3.466665 3.025306 -0.468923 -19.277029 -10.207673 56.904475 -0.822296 72.918540 0.233820 0.000000 0.000000 0.000000 
8.198886 89.589493 122.807289 0.000000 0.000000 0.000000 22.718717 31.496905 -9.244251 -46.783357 7.546300 10.758460 27.490849 10.082389 -5.016019 7.243256 30.094592 -9.921088 -4.671816 -0.333492 0.643253 0.000000 0.000000 0.000000 23.873241 32.180566 -10.121151 -32.816720 -13.014735 -2.011160 22.418810 -5.911517 -6.898755 -8.405331 -12.075105 6.813280 0.207922 0.586483 0.236038 0.000000 0.000000 0.000000 21.157037 27.403194 -8.186456 10.345392 2.182456 3.412127 9.087018 -1.564705 0.243376 0.309507 4.258209 -0.408974 0.000000 0.000000 0.000000 9.109322 -1.953399 0.257548 -5.155930 -0.804059 0.118580 -27.226141 -7.510987 -1.811055 0.000000 0.000000 0.000000 9.733452 -1.960153 0.010777 1.256406 -6.786709 -5.995606 4.148394 -4.655871 0.858175 -18.653800 -21.300353 -30.787754 1.098668 -28.826301 0.727996 0.000000 0.000000 0.000000 10.353296 -1.531964 0.435912 1.963755 6.957978 4.975025 3.165732 2.958069 -0.315983 -18.898718 -9.809575 58.670772 -1.400711 77.491577 0.764959 0.000000 0.000000 0.000000 
8.796720 87.863037 125.543083 0.000000 0.000000 0.000000 21.538894 32.286516 -9.450013 -48.866329 6.918169 9.901208 27.297899 10.332845 -5.050330 7.749907 30.123214 -8.352347 -4.206918 -0.313893 0.994755 0.000000 0.000000 0.000000 23.015431 33.404092 -10.390190 -29.466150 -14.193545 -1.242762 25.803731 -5.753467 -6.495182 -13.708459 -13.872412 6.448456 0.103098 0.756140 -0.118262 0.000000 0.000000 0.000000 20.179159 29.495240 -8.537263 10.040375 3.111055 3.532040 8.894906 -0.992856 -0.143625 0.541156 4.178613 -0.452547 0.000000 0.000000 0.000000 8.874280 -1.453075 -0.073740 -5.273568 -1.190757 -0.975055 -28.272605 -10.444029 -2.485228 0.000000 0.000000 0.000000 9.696445 -1.418760 -0.304529 1.357392 -5.499341 -5.403545 3.646749 -4.607985 0.804876 -16.545633 -19.250256 -30.469539 1.281681 -33.933001 0.885345 0.000000 0.000000 0.000000 10.321192 -1.000205 0.063693 1.850210 7.878423 4.829949 2.963484 3.006610 -0.264522 -18.074987 -8.857308 60.608414 -1.138983 81.156950 0.440594 0.000000 0.000000 0.000000 
9.492579 85.821167 128.445618 0.000000 0.000000 0.000000 20.074677 33.172361 -9.612191 -51.099394 6.455959 9.541136 29.154266 10.442324 -5.262168 7.931719 29.207026 -6.261270 -5.248819 -0.297573 1.453846 0.000000 0.000000 0.000000 21.914524 34.594218 -10.606013 -26.920853 -15.011118 -0.439159 30.907108 -5.343557 -5.852688 -19.340405 -15.440542 5.808057 0.032825 0.876470 -0.550530 0.000000 0.000000 0.000000 19.265578 31.822521 -8.971876 9.633008 3.912417 3.407339 8.380881 -0.311038 -0.530292 0.752970 3.829553 -0.429234 0.000000 0.000000 0.000000 8.459858 -0.803602 -0.433150 -5.453299 -1.804587 -1.942306 -28.416017 -13.533368 -2.504739 0.000000 0.000000 0.000000 9.333582 -0.704749 -0.567854 1.397025 -4.231777 -4.607430 3.087953 -4.575393 0.589240 -14.945702 -17.038228 -30.027342 1.251404 -39.955831 0.913605 0.000000 0.000000 0.000000 9.916550 -0.351822 -0.317717 1.729652 8.775646 4.496213 2.913093 2.977000 -0.323450 -17.399506 -7.829838 62.516831 0.681552 83.812841 -1.498978 0.000000 0.000000 0.000000 
10.303120 84.293846 131.740204 0.000000 0.000000 0.000000 18.782366 34.293348 -9.930995 -53.102836 6.263674 9.279609 32.222111 10.601394 -5.503165 8.493409 27.628187 -4.137779 -5.846186 -0.218519 1.281235 0.000000 0.000000 0.000000 20.847930 35.721821 -10.877391 -24.481618 -15.819268 0.479118 35.483727 -4.583470 -5.181476 -23.771418 -16.489863 5.169117 -0.475862 0.971645 -0.891118 0.000000 0.000000 0.000000 18.554318 34.225108 -9.559886 8.999711 4.533679 2.939342 7.539749 0.406439 -0.832110 1.053299 3.478324 -0.153975 0.000000 0.000000 0.000000 7.860002 -0.054151 -0.756986 -5.600815 -2.603618 -2.697834 -27.596911 -16.680398 -1.764639 0.000000 0.000000 0.000000 8.639962 0.097513 -0.735915 1.355729 -3.098225 -3.740174 2.581989 -4.574047 0.336371 -13.993316 -15.244847 -29.457735 1.039238 -45.771878 0.838203 0.000000 0.000000 0.000000 9.134061 0.345021 -0.636856 1.605007 9.379610 4.019140 3.045015 2.687368 -0.530951 -17.010491 -7.085007 64.310452 4.459984 85.647608 -5.459225 0.000000 0.000000 0.000000 
11.325352 83.797981 135.201675 0.000000 0.000000 0.000000 17.946508 35.673077 -10.423308 -53.993643 6.513723 9.138586 34.970125 10.996160 -5.630565 8.936424 25.755916 -2.063395 -5.007407 -0.059893 0.439565 0.000000 0.000000 0.000000 19.945705 36.682108 -11.210173 -21.592357 -16.830001 1.564476 37.903397 -3.636557 -4.630287 -26.215063 -16.975940 4.506566 -1.875272 1.032556 -1.005613 0.000000 0.000000 0.000000 18.176880 36.289724 -10.303389 8.107905 4.887305 2.147008 6.461047 1.058445 -1.012238 1.233077 3.176458 0.062819 0.000000 0.000000 0.000000 7.128568 0.703569 -1.004204 -5.579146 -3.439021 -3.185431 -25.913968 -19.680032 -0.321857 0.000000 0.000000 0.000000 7.679397 0.887643 -0.809117 1.228945 -2.255855 -2.924451 2.139927 -4.645882 0.065962 -13.493760 -14.440459 -28.748574 0.745029 -50.798822 0.740545 0.000000 0.000000 0.000000 8.013040 0.983605 -0.862387 1.464618 9.497602 3.587238 3.291028 2.288956 -0.800830 -16.801476 -6.828865 66.040799 9.574881 86.868436 -10.747841 0.000000 0.000000 0.000000 
12.638027 84.416183 138.843079 0.000000 0.000000 0.000000 17.435460 37.038019 -10.950334 -53.041736 7.302772 9.211103 36.002105 11.385185 -5.368022 8.649173 23.707049 -0.419591 -4.011948 0.056047 -0.278027 0.000000 0.000000 0.000000 19.346120 37.544863 -11.611889 -18.435808 -18.098821 2.633098 37.951427 -2.667640 -4.286943 -26.192239 -17.023534 3.753510 -4.353178 1.068264 -0.915084 0.000000 0.000000 0.000000 17.897737 37.908953 -11.072821 6.999832 4.870788 1.137907 5.288216 1.558437 -1.117811 1.384357 2.892462 0.239685 0.000000 0.000000 0.000000 6.291490 1.328844 -1.175661 -5.408835 -4.241886 -3.426524 -23.476649 -22.234076 1.688829 0.000000 0.000000 0.000000 6.552593 1.532231 -0.836128 1.010503 -1.786947 -2.267913 1.608545 -4.910211 -0.075470 -13.276532 -14.885689 -28.074154 0.614939 -55.026654 0.783510 0.000000 0.000000 0.000000 6.742320 1.472012 -1.016201 1.312185 9.034637 3.282312 3.497549 1.903347 -1.023505 -16.252153 -6.728530 67.771890 14.217217 87.543532 -15.455342 0.000000 0.000000 0.000000 
